<mxfile host="app.diagrams.net" modified="2023-12-19T03:14:07.334Z" agent="Mozilla/5.0 (Windows NT 10.0; Win64; x64) AppleWebKit/537.36 (KHTML, like Gecko) Chrome/119.0.0.0 Safari/537.36 OPR/105.0.0.0" etag="PBZ4JfYNIylr2THS-lLT" version="22.1.11" type="github">
  <diagram name="Page-1" id="ySlSw5_M_sLU7GGw0Z9M">
    <mxGraphModel dx="1256" dy="724" grid="1" gridSize="10" guides="1" tooltips="1" connect="1" arrows="1" fold="1" page="1" pageScale="1" pageWidth="827" pageHeight="1169" math="0" shadow="0">
      <root>
        <mxCell id="0" />
        <mxCell id="1" parent="0" />
        <mxCell id="CvdY9FGDeXSNJmlMAJMc-1" value="&lt;div&gt;Инвентари&lt;/div&gt;" style="swimlane;fontStyle=0;childLayout=stackLayout;horizontal=1;startSize=30;horizontalStack=0;resizeParent=1;resizeParentMax=0;resizeLast=0;collapsible=1;marginBottom=0;whiteSpace=wrap;html=1;" vertex="1" parent="1">
          <mxGeometry x="350" y="290" width="130" height="90" as="geometry" />
        </mxCell>
        <mxCell id="CvdY9FGDeXSNJmlMAJMc-2" value="&lt;div&gt;Ключ&lt;/div&gt;" style="text;strokeColor=none;fillColor=none;align=left;verticalAlign=middle;spacingLeft=4;spacingRight=4;overflow=hidden;points=[[0,0.5],[1,0.5]];portConstraint=eastwest;rotatable=0;whiteSpace=wrap;html=1;" vertex="1" parent="CvdY9FGDeXSNJmlMAJMc-1">
          <mxGeometry y="30" width="130" height="30" as="geometry" />
        </mxCell>
        <mxCell id="CvdY9FGDeXSNJmlMAJMc-3" value="Количество слотов" style="text;strokeColor=none;fillColor=none;align=left;verticalAlign=middle;spacingLeft=4;spacingRight=4;overflow=hidden;points=[[0,0.5],[1,0.5]];portConstraint=eastwest;rotatable=0;whiteSpace=wrap;html=1;" vertex="1" parent="CvdY9FGDeXSNJmlMAJMc-1">
          <mxGeometry y="60" width="130" height="30" as="geometry" />
        </mxCell>
        <mxCell id="CvdY9FGDeXSNJmlMAJMc-4" value="&lt;div&gt;Персонаж&lt;/div&gt;" style="swimlane;fontStyle=0;childLayout=stackLayout;horizontal=1;startSize=30;horizontalStack=0;resizeParent=1;resizeParentMax=0;resizeLast=0;collapsible=1;marginBottom=0;whiteSpace=wrap;html=1;" vertex="1" parent="1">
          <mxGeometry x="115" y="20" width="145" height="240" as="geometry" />
        </mxCell>
        <mxCell id="CvdY9FGDeXSNJmlMAJMc-5" value="Ключ" style="text;strokeColor=none;fillColor=none;align=left;verticalAlign=middle;spacingLeft=4;spacingRight=4;overflow=hidden;points=[[0,0.5],[1,0.5]];portConstraint=eastwest;rotatable=0;whiteSpace=wrap;html=1;" vertex="1" parent="CvdY9FGDeXSNJmlMAJMc-4">
          <mxGeometry y="30" width="145" height="30" as="geometry" />
        </mxCell>
        <mxCell id="CvdY9FGDeXSNJmlMAJMc-6" value="Координаты" style="text;strokeColor=none;fillColor=none;align=left;verticalAlign=middle;spacingLeft=4;spacingRight=4;overflow=hidden;points=[[0,0.5],[1,0.5]];portConstraint=eastwest;rotatable=0;whiteSpace=wrap;html=1;" vertex="1" parent="CvdY9FGDeXSNJmlMAJMc-4">
          <mxGeometry y="60" width="145" height="30" as="geometry" />
        </mxCell>
        <mxCell id="CvdY9FGDeXSNJmlMAJMc-7" value="Характеристики" style="text;strokeColor=none;fillColor=none;align=left;verticalAlign=middle;spacingLeft=4;spacingRight=4;overflow=hidden;points=[[0,0.5],[1,0.5]];portConstraint=eastwest;rotatable=0;whiteSpace=wrap;html=1;" vertex="1" parent="CvdY9FGDeXSNJmlMAJMc-4">
          <mxGeometry y="90" width="145" height="30" as="geometry" />
        </mxCell>
        <mxCell id="CvdY9FGDeXSNJmlMAJMc-8" value="Взаимодействие" style="text;strokeColor=none;fillColor=none;align=left;verticalAlign=middle;spacingLeft=4;spacingRight=4;overflow=hidden;points=[[0,0.5],[1,0.5]];portConstraint=eastwest;rotatable=0;whiteSpace=wrap;html=1;" vertex="1" parent="CvdY9FGDeXSNJmlMAJMc-4">
          <mxGeometry y="120" width="145" height="30" as="geometry" />
        </mxCell>
        <mxCell id="CvdY9FGDeXSNJmlMAJMc-9" value="Книга заклинаний" style="text;strokeColor=none;fillColor=none;align=left;verticalAlign=middle;spacingLeft=4;spacingRight=4;overflow=hidden;points=[[0,0.5],[1,0.5]];portConstraint=eastwest;rotatable=0;whiteSpace=wrap;html=1;" vertex="1" parent="CvdY9FGDeXSNJmlMAJMc-4">
          <mxGeometry y="150" width="145" height="30" as="geometry" />
        </mxCell>
        <mxCell id="CvdY9FGDeXSNJmlMAJMc-10" value="&lt;div&gt;Инвентарь персонажа&lt;br&gt;&lt;/div&gt;" style="text;strokeColor=none;fillColor=none;align=left;verticalAlign=middle;spacingLeft=4;spacingRight=4;overflow=hidden;points=[[0,0.5],[1,0.5]];portConstraint=eastwest;rotatable=0;whiteSpace=wrap;html=1;" vertex="1" parent="CvdY9FGDeXSNJmlMAJMc-4">
          <mxGeometry y="180" width="145" height="30" as="geometry" />
        </mxCell>
        <mxCell id="CvdY9FGDeXSNJmlMAJMc-11" value="Текущее задание" style="text;strokeColor=none;fillColor=none;align=left;verticalAlign=middle;spacingLeft=4;spacingRight=4;overflow=hidden;points=[[0,0.5],[1,0.5]];portConstraint=eastwest;rotatable=0;whiteSpace=wrap;html=1;" vertex="1" parent="CvdY9FGDeXSNJmlMAJMc-4">
          <mxGeometry y="210" width="145" height="30" as="geometry" />
        </mxCell>
        <mxCell id="CvdY9FGDeXSNJmlMAJMc-12" value="Задания" style="swimlane;fontStyle=0;childLayout=stackLayout;horizontal=1;startSize=30;horizontalStack=0;resizeParent=1;resizeParentMax=0;resizeLast=0;collapsible=1;marginBottom=0;whiteSpace=wrap;html=1;" vertex="1" parent="1">
          <mxGeometry x="250" y="470" width="210" height="180" as="geometry" />
        </mxCell>
        <mxCell id="CvdY9FGDeXSNJmlMAJMc-13" value="Ключ" style="text;strokeColor=none;fillColor=none;align=left;verticalAlign=middle;spacingLeft=4;spacingRight=4;overflow=hidden;points=[[0,0.5],[1,0.5]];portConstraint=eastwest;rotatable=0;whiteSpace=wrap;html=1;" vertex="1" parent="CvdY9FGDeXSNJmlMAJMc-12">
          <mxGeometry y="30" width="210" height="30" as="geometry" />
        </mxCell>
        <mxCell id="CvdY9FGDeXSNJmlMAJMc-14" value="Текст задания" style="text;strokeColor=none;fillColor=none;align=left;verticalAlign=middle;spacingLeft=4;spacingRight=4;overflow=hidden;points=[[0,0.5],[1,0.5]];portConstraint=eastwest;rotatable=0;whiteSpace=wrap;html=1;" vertex="1" parent="CvdY9FGDeXSNJmlMAJMc-12">
          <mxGeometry y="60" width="210" height="30" as="geometry" />
        </mxCell>
        <mxCell id="CvdY9FGDeXSNJmlMAJMc-15" value="Уровень задания" style="text;strokeColor=none;fillColor=none;align=left;verticalAlign=middle;spacingLeft=4;spacingRight=4;overflow=hidden;points=[[0,0.5],[1,0.5]];portConstraint=eastwest;rotatable=0;whiteSpace=wrap;html=1;" vertex="1" parent="CvdY9FGDeXSNJmlMAJMc-12">
          <mxGeometry y="90" width="210" height="30" as="geometry" />
        </mxCell>
        <mxCell id="CvdY9FGDeXSNJmlMAJMc-16" value="Низший уровень развития сюжета" style="text;strokeColor=none;fillColor=none;align=left;verticalAlign=middle;spacingLeft=4;spacingRight=4;overflow=hidden;points=[[0,0.5],[1,0.5]];portConstraint=eastwest;rotatable=0;whiteSpace=wrap;html=1;" vertex="1" parent="CvdY9FGDeXSNJmlMAJMc-12">
          <mxGeometry y="120" width="210" height="30" as="geometry" />
        </mxCell>
        <mxCell id="CvdY9FGDeXSNJmlMAJMc-17" value="Высший уровень развития сюжета" style="text;strokeColor=none;fillColor=none;align=left;verticalAlign=middle;spacingLeft=4;spacingRight=4;overflow=hidden;points=[[0,0.5],[1,0.5]];portConstraint=eastwest;rotatable=0;whiteSpace=wrap;html=1;" vertex="1" parent="CvdY9FGDeXSNJmlMAJMc-12">
          <mxGeometry y="150" width="210" height="30" as="geometry" />
        </mxCell>
        <mxCell id="CvdY9FGDeXSNJmlMAJMc-18" value="Заклинания" style="swimlane;fontStyle=0;childLayout=stackLayout;horizontal=1;startSize=30;horizontalStack=0;resizeParent=1;resizeParentMax=0;resizeLast=0;collapsible=1;marginBottom=0;whiteSpace=wrap;html=1;" vertex="1" parent="1">
          <mxGeometry x="380" y="50" width="120" height="120" as="geometry" />
        </mxCell>
        <mxCell id="CvdY9FGDeXSNJmlMAJMc-19" value="&lt;div&gt;Ключ&lt;/div&gt;" style="text;strokeColor=none;fillColor=none;align=left;verticalAlign=middle;spacingLeft=4;spacingRight=4;overflow=hidden;points=[[0,0.5],[1,0.5]];portConstraint=eastwest;rotatable=0;whiteSpace=wrap;html=1;" vertex="1" parent="CvdY9FGDeXSNJmlMAJMc-18">
          <mxGeometry y="30" width="120" height="30" as="geometry" />
        </mxCell>
        <mxCell id="CvdY9FGDeXSNJmlMAJMc-20" value="Заклинание" style="text;strokeColor=none;fillColor=none;align=left;verticalAlign=middle;spacingLeft=4;spacingRight=4;overflow=hidden;points=[[0,0.5],[1,0.5]];portConstraint=eastwest;rotatable=0;whiteSpace=wrap;html=1;" vertex="1" parent="CvdY9FGDeXSNJmlMAJMc-18">
          <mxGeometry y="60" width="120" height="30" as="geometry" />
        </mxCell>
        <mxCell id="CvdY9FGDeXSNJmlMAJMc-21" value="Координаты" style="text;strokeColor=none;fillColor=none;align=left;verticalAlign=middle;spacingLeft=4;spacingRight=4;overflow=hidden;points=[[0,0.5],[1,0.5]];portConstraint=eastwest;rotatable=0;whiteSpace=wrap;html=1;" vertex="1" parent="CvdY9FGDeXSNJmlMAJMc-18">
          <mxGeometry y="90" width="120" height="30" as="geometry" />
        </mxCell>
        <mxCell id="CvdY9FGDeXSNJmlMAJMc-22" value="Контейнеры" style="swimlane;fontStyle=0;childLayout=stackLayout;horizontal=1;startSize=30;horizontalStack=0;resizeParent=1;resizeParentMax=0;resizeLast=0;collapsible=1;marginBottom=0;whiteSpace=wrap;html=1;" vertex="1" parent="1">
          <mxGeometry x="630" y="230" width="100" height="90" as="geometry" />
        </mxCell>
        <mxCell id="CvdY9FGDeXSNJmlMAJMc-23" value="Ключ" style="text;strokeColor=none;fillColor=none;align=left;verticalAlign=middle;spacingLeft=4;spacingRight=4;overflow=hidden;points=[[0,0.5],[1,0.5]];portConstraint=eastwest;rotatable=0;whiteSpace=wrap;html=1;" vertex="1" parent="CvdY9FGDeXSNJmlMAJMc-22">
          <mxGeometry y="30" width="100" height="30" as="geometry" />
        </mxCell>
        <mxCell id="CvdY9FGDeXSNJmlMAJMc-24" value="Коордитнаты" style="text;strokeColor=none;fillColor=none;align=left;verticalAlign=middle;spacingLeft=4;spacingRight=4;overflow=hidden;points=[[0,0.5],[1,0.5]];portConstraint=eastwest;rotatable=0;whiteSpace=wrap;html=1;" vertex="1" parent="CvdY9FGDeXSNJmlMAJMc-22">
          <mxGeometry y="60" width="100" height="30" as="geometry" />
        </mxCell>
        <mxCell id="CvdY9FGDeXSNJmlMAJMc-25" value="&lt;div&gt;Типы заклинаний&lt;/div&gt;" style="swimlane;fontStyle=0;childLayout=stackLayout;horizontal=1;startSize=30;horizontalStack=0;resizeParent=1;resizeParentMax=0;resizeLast=0;collapsible=1;marginBottom=0;whiteSpace=wrap;html=1;" vertex="1" parent="1">
          <mxGeometry x="600" y="30" width="130" height="120" as="geometry" />
        </mxCell>
        <mxCell id="CvdY9FGDeXSNJmlMAJMc-26" value="&lt;div&gt;Ключ&lt;/div&gt;" style="text;strokeColor=none;fillColor=none;align=left;verticalAlign=middle;spacingLeft=4;spacingRight=4;overflow=hidden;points=[[0,0.5],[1,0.5]];portConstraint=eastwest;rotatable=0;whiteSpace=wrap;html=1;" vertex="1" parent="CvdY9FGDeXSNJmlMAJMc-25">
          <mxGeometry y="30" width="130" height="30" as="geometry" />
        </mxCell>
        <mxCell id="CvdY9FGDeXSNJmlMAJMc-27" value="Урон" style="text;strokeColor=none;fillColor=none;align=left;verticalAlign=middle;spacingLeft=4;spacingRight=4;overflow=hidden;points=[[0,0.5],[1,0.5]];portConstraint=eastwest;rotatable=0;whiteSpace=wrap;html=1;" vertex="1" parent="CvdY9FGDeXSNJmlMAJMc-25">
          <mxGeometry y="60" width="130" height="30" as="geometry" />
        </mxCell>
        <mxCell id="CvdY9FGDeXSNJmlMAJMc-28" value="Тип урона" style="text;strokeColor=none;fillColor=none;align=left;verticalAlign=middle;spacingLeft=4;spacingRight=4;overflow=hidden;points=[[0,0.5],[1,0.5]];portConstraint=eastwest;rotatable=0;whiteSpace=wrap;html=1;" vertex="1" parent="CvdY9FGDeXSNJmlMAJMc-25">
          <mxGeometry y="90" width="130" height="30" as="geometry" />
        </mxCell>
        <mxCell id="CvdY9FGDeXSNJmlMAJMc-29" style="edgeStyle=orthogonalEdgeStyle;rounded=0;orthogonalLoop=1;jettySize=auto;html=1;" edge="1" parent="1" source="CvdY9FGDeXSNJmlMAJMc-26" target="CvdY9FGDeXSNJmlMAJMc-20">
          <mxGeometry relative="1" as="geometry" />
        </mxCell>
        <mxCell id="CvdY9FGDeXSNJmlMAJMc-30" value="&lt;font style=&quot;font-size: 25px;&quot;&gt;1/N&lt;/font&gt;" style="edgeLabel;html=1;align=center;verticalAlign=middle;resizable=0;points=[];" vertex="1" connectable="0" parent="CvdY9FGDeXSNJmlMAJMc-29">
          <mxGeometry x="-0.0111" y="-4" relative="1" as="geometry">
            <mxPoint as="offset" />
          </mxGeometry>
        </mxCell>
        <mxCell id="CvdY9FGDeXSNJmlMAJMc-31" style="edgeStyle=orthogonalEdgeStyle;rounded=0;orthogonalLoop=1;jettySize=auto;html=1;" edge="1" parent="1" source="CvdY9FGDeXSNJmlMAJMc-19" target="CvdY9FGDeXSNJmlMAJMc-9">
          <mxGeometry relative="1" as="geometry" />
        </mxCell>
        <mxCell id="CvdY9FGDeXSNJmlMAJMc-32" value="&lt;font style=&quot;font-size: 25px;&quot;&gt;1/N&lt;/font&gt;" style="edgeLabel;html=1;align=center;verticalAlign=middle;resizable=0;points=[];" vertex="1" connectable="0" parent="CvdY9FGDeXSNJmlMAJMc-31">
          <mxGeometry x="-0.0765" y="1" relative="1" as="geometry">
            <mxPoint as="offset" />
          </mxGeometry>
        </mxCell>
        <mxCell id="CvdY9FGDeXSNJmlMAJMc-33" value="&lt;div&gt;Типы&lt;span style=&quot;background-color: initial;&quot;&gt;&amp;nbsp;предметов&lt;/span&gt;&lt;/div&gt;" style="swimlane;fontStyle=0;childLayout=stackLayout;horizontal=1;startSize=30;horizontalStack=0;resizeParent=1;resizeParentMax=0;resizeLast=0;collapsible=1;marginBottom=0;whiteSpace=wrap;html=1;" vertex="1" parent="1">
          <mxGeometry x="645" y="370" width="105" height="120" as="geometry" />
        </mxCell>
        <mxCell id="CvdY9FGDeXSNJmlMAJMc-34" value="Ключ" style="text;strokeColor=none;fillColor=none;align=left;verticalAlign=middle;spacingLeft=4;spacingRight=4;overflow=hidden;points=[[0,0.5],[1,0.5]];portConstraint=eastwest;rotatable=0;whiteSpace=wrap;html=1;" vertex="1" parent="CvdY9FGDeXSNJmlMAJMc-33">
          <mxGeometry y="30" width="105" height="30" as="geometry" />
        </mxCell>
        <mxCell id="CvdY9FGDeXSNJmlMAJMc-35" value="Название" style="text;strokeColor=none;fillColor=none;align=left;verticalAlign=middle;spacingLeft=4;spacingRight=4;overflow=hidden;points=[[0,0.5],[1,0.5]];portConstraint=eastwest;rotatable=0;whiteSpace=wrap;html=1;" vertex="1" parent="CvdY9FGDeXSNJmlMAJMc-33">
          <mxGeometry y="60" width="105" height="30" as="geometry" />
        </mxCell>
        <mxCell id="CvdY9FGDeXSNJmlMAJMc-36" value="Задание" style="text;strokeColor=none;fillColor=none;align=left;verticalAlign=middle;spacingLeft=4;spacingRight=4;overflow=hidden;points=[[0,0.5],[1,0.5]];portConstraint=eastwest;rotatable=0;whiteSpace=wrap;html=1;" vertex="1" parent="CvdY9FGDeXSNJmlMAJMc-33">
          <mxGeometry y="90" width="105" height="30" as="geometry" />
        </mxCell>
        <mxCell id="CvdY9FGDeXSNJmlMAJMc-37" value="Предметы" style="swimlane;fontStyle=0;childLayout=stackLayout;horizontal=1;startSize=30;horizontalStack=0;resizeParent=1;resizeParentMax=0;resizeLast=0;collapsible=1;marginBottom=0;whiteSpace=wrap;html=1;" vertex="1" parent="1">
          <mxGeometry x="90" y="310" width="110" height="180" as="geometry" />
        </mxCell>
        <mxCell id="CvdY9FGDeXSNJmlMAJMc-38" value="Ключ" style="text;strokeColor=none;fillColor=none;align=left;verticalAlign=middle;spacingLeft=4;spacingRight=4;overflow=hidden;points=[[0,0.5],[1,0.5]];portConstraint=eastwest;rotatable=0;whiteSpace=wrap;html=1;" vertex="1" parent="CvdY9FGDeXSNJmlMAJMc-37">
          <mxGeometry y="30" width="110" height="30" as="geometry" />
        </mxCell>
        <mxCell id="CvdY9FGDeXSNJmlMAJMc-39" value="Инвентарь" style="text;strokeColor=none;fillColor=none;align=left;verticalAlign=middle;spacingLeft=4;spacingRight=4;overflow=hidden;points=[[0,0.5],[1,0.5]];portConstraint=eastwest;rotatable=0;whiteSpace=wrap;html=1;" vertex="1" parent="CvdY9FGDeXSNJmlMAJMc-37">
          <mxGeometry y="60" width="110" height="30" as="geometry" />
        </mxCell>
        <mxCell id="CvdY9FGDeXSNJmlMAJMc-40" value="Номер слота" style="text;strokeColor=none;fillColor=none;align=left;verticalAlign=middle;spacingLeft=4;spacingRight=4;overflow=hidden;points=[[0,0.5],[1,0.5]];portConstraint=eastwest;rotatable=0;whiteSpace=wrap;html=1;" vertex="1" parent="CvdY9FGDeXSNJmlMAJMc-37">
          <mxGeometry y="90" width="110" height="30" as="geometry" />
        </mxCell>
        <mxCell id="CvdY9FGDeXSNJmlMAJMc-41" value="Тип предмета" style="text;strokeColor=none;fillColor=none;align=left;verticalAlign=middle;spacingLeft=4;spacingRight=4;overflow=hidden;points=[[0,0.5],[1,0.5]];portConstraint=eastwest;rotatable=0;whiteSpace=wrap;html=1;" vertex="1" parent="CvdY9FGDeXSNJmlMAJMc-37">
          <mxGeometry y="120" width="110" height="30" as="geometry" />
        </mxCell>
        <mxCell id="CvdY9FGDeXSNJmlMAJMc-42" value="Количество" style="text;strokeColor=none;fillColor=none;align=left;verticalAlign=middle;spacingLeft=4;spacingRight=4;overflow=hidden;points=[[0,0.5],[1,0.5]];portConstraint=eastwest;rotatable=0;whiteSpace=wrap;html=1;" vertex="1" parent="CvdY9FGDeXSNJmlMAJMc-37">
          <mxGeometry y="150" width="110" height="30" as="geometry" />
        </mxCell>
        <mxCell id="CvdY9FGDeXSNJmlMAJMc-43" style="edgeStyle=orthogonalEdgeStyle;rounded=0;orthogonalLoop=1;jettySize=auto;html=1;entryX=1;entryY=0.5;entryDx=0;entryDy=0;" edge="1" parent="1" source="CvdY9FGDeXSNJmlMAJMc-23" target="CvdY9FGDeXSNJmlMAJMc-2">
          <mxGeometry relative="1" as="geometry" />
        </mxCell>
        <mxCell id="CvdY9FGDeXSNJmlMAJMc-44" value="&lt;font style=&quot;font-size: 25px;&quot;&gt;1/N&lt;/font&gt;" style="edgeLabel;html=1;align=center;verticalAlign=middle;resizable=0;points=[];" vertex="1" connectable="0" parent="CvdY9FGDeXSNJmlMAJMc-43">
          <mxGeometry x="-0.5566" y="2" relative="1" as="geometry">
            <mxPoint x="9" y="-2" as="offset" />
          </mxGeometry>
        </mxCell>
        <mxCell id="CvdY9FGDeXSNJmlMAJMc-45" style="edgeStyle=orthogonalEdgeStyle;rounded=0;orthogonalLoop=1;jettySize=auto;html=1;entryX=1;entryY=0.5;entryDx=0;entryDy=0;" edge="1" parent="1" source="CvdY9FGDeXSNJmlMAJMc-10" target="CvdY9FGDeXSNJmlMAJMc-2">
          <mxGeometry relative="1" as="geometry">
            <Array as="points">
              <mxPoint x="530" y="215" />
              <mxPoint x="530" y="335" />
            </Array>
          </mxGeometry>
        </mxCell>
        <mxCell id="CvdY9FGDeXSNJmlMAJMc-46" value="&lt;div&gt;&lt;font style=&quot;font-size: 25px;&quot;&gt;1/1&lt;/font&gt;&lt;/div&gt;" style="edgeLabel;html=1;align=center;verticalAlign=middle;resizable=0;points=[];" vertex="1" connectable="0" parent="CvdY9FGDeXSNJmlMAJMc-45">
          <mxGeometry x="-0.5828" y="2" relative="1" as="geometry">
            <mxPoint x="-1" as="offset" />
          </mxGeometry>
        </mxCell>
        <mxCell id="CvdY9FGDeXSNJmlMAJMc-47" style="edgeStyle=orthogonalEdgeStyle;rounded=0;orthogonalLoop=1;jettySize=auto;html=1;entryX=0;entryY=0.5;entryDx=0;entryDy=0;exitX=0;exitY=0.5;exitDx=0;exitDy=0;" edge="1" parent="1" source="CvdY9FGDeXSNJmlMAJMc-13" target="CvdY9FGDeXSNJmlMAJMc-11">
          <mxGeometry relative="1" as="geometry">
            <Array as="points">
              <mxPoint x="250" y="520" />
              <mxPoint x="60" y="520" />
              <mxPoint x="60" y="245" />
            </Array>
          </mxGeometry>
        </mxCell>
        <mxCell id="CvdY9FGDeXSNJmlMAJMc-48" value="&lt;div style=&quot;font-size: 25px;&quot;&gt;&lt;font style=&quot;font-size: 25px;&quot;&gt;1/N&lt;/font&gt;&lt;/div&gt;" style="edgeLabel;html=1;align=center;verticalAlign=middle;resizable=0;points=[];" vertex="1" connectable="0" parent="CvdY9FGDeXSNJmlMAJMc-47">
          <mxGeometry x="-0.9103" y="-2" relative="1" as="geometry">
            <mxPoint x="-97" y="2" as="offset" />
          </mxGeometry>
        </mxCell>
        <mxCell id="CvdY9FGDeXSNJmlMAJMc-49" value="Сюжетные маркеры" style="swimlane;fontStyle=0;childLayout=stackLayout;horizontal=1;startSize=30;horizontalStack=0;resizeParent=1;resizeParentMax=0;resizeLast=0;collapsible=1;marginBottom=0;whiteSpace=wrap;html=1;" vertex="1" parent="1">
          <mxGeometry x="570" y="500" width="130" height="150" as="geometry" />
        </mxCell>
        <mxCell id="CvdY9FGDeXSNJmlMAJMc-50" value="Ключ" style="text;strokeColor=none;fillColor=none;align=left;verticalAlign=middle;spacingLeft=4;spacingRight=4;overflow=hidden;points=[[0,0.5],[1,0.5]];portConstraint=eastwest;rotatable=0;whiteSpace=wrap;html=1;" vertex="1" parent="CvdY9FGDeXSNJmlMAJMc-49">
          <mxGeometry y="30" width="130" height="30" as="geometry" />
        </mxCell>
        <mxCell id="CvdY9FGDeXSNJmlMAJMc-51" value="Задание&lt;br&gt;" style="text;strokeColor=none;fillColor=none;align=left;verticalAlign=middle;spacingLeft=4;spacingRight=4;overflow=hidden;points=[[0,0.5],[1,0.5]];portConstraint=eastwest;rotatable=0;whiteSpace=wrap;html=1;" vertex="1" parent="CvdY9FGDeXSNJmlMAJMc-49">
          <mxGeometry y="60" width="130" height="30" as="geometry" />
        </mxCell>
        <mxCell id="CvdY9FGDeXSNJmlMAJMc-52" value="Координаты" style="text;strokeColor=none;fillColor=none;align=left;verticalAlign=middle;spacingLeft=4;spacingRight=4;overflow=hidden;points=[[0,0.5],[1,0.5]];portConstraint=eastwest;rotatable=0;whiteSpace=wrap;html=1;" vertex="1" parent="CvdY9FGDeXSNJmlMAJMc-49">
          <mxGeometry y="90" width="130" height="30" as="geometry" />
        </mxCell>
        <mxCell id="CvdY9FGDeXSNJmlMAJMc-53" value="Размер" style="text;strokeColor=none;fillColor=none;align=left;verticalAlign=middle;spacingLeft=4;spacingRight=4;overflow=hidden;points=[[0,0.5],[1,0.5]];portConstraint=eastwest;rotatable=0;whiteSpace=wrap;html=1;" vertex="1" parent="CvdY9FGDeXSNJmlMAJMc-49">
          <mxGeometry y="120" width="130" height="30" as="geometry" />
        </mxCell>
        <mxCell id="CvdY9FGDeXSNJmlMAJMc-54" style="edgeStyle=orthogonalEdgeStyle;rounded=0;orthogonalLoop=1;jettySize=auto;html=1;entryX=1;entryY=0.5;entryDx=0;entryDy=0;exitX=0;exitY=0.5;exitDx=0;exitDy=0;" edge="1" parent="1" source="CvdY9FGDeXSNJmlMAJMc-36" target="CvdY9FGDeXSNJmlMAJMc-13">
          <mxGeometry relative="1" as="geometry">
            <mxPoint x="550" y="490" as="targetPoint" />
            <Array as="points">
              <mxPoint x="500" y="475" />
              <mxPoint x="500" y="515" />
            </Array>
          </mxGeometry>
        </mxCell>
        <mxCell id="CvdY9FGDeXSNJmlMAJMc-55" value="&lt;font style=&quot;font-size: 25px;&quot;&gt;1/N&lt;/font&gt;" style="edgeLabel;html=1;align=center;verticalAlign=middle;resizable=0;points=[];" vertex="1" connectable="0" parent="CvdY9FGDeXSNJmlMAJMc-54">
          <mxGeometry x="0.3468" y="1" relative="1" as="geometry">
            <mxPoint x="30" y="-6" as="offset" />
          </mxGeometry>
        </mxCell>
        <mxCell id="CvdY9FGDeXSNJmlMAJMc-56" style="edgeStyle=orthogonalEdgeStyle;rounded=0;orthogonalLoop=1;jettySize=auto;html=1;entryX=1;entryY=0.5;entryDx=0;entryDy=0;exitX=0;exitY=0.5;exitDx=0;exitDy=0;" edge="1" parent="1" source="CvdY9FGDeXSNJmlMAJMc-51" target="CvdY9FGDeXSNJmlMAJMc-13">
          <mxGeometry relative="1" as="geometry" />
        </mxCell>
        <mxCell id="CvdY9FGDeXSNJmlMAJMc-57" value="&lt;font style=&quot;font-size: 25px;&quot;&gt;1/N&lt;/font&gt;" style="edgeLabel;html=1;align=center;verticalAlign=middle;resizable=0;points=[];" vertex="1" connectable="0" parent="CvdY9FGDeXSNJmlMAJMc-56">
          <mxGeometry x="-0.4124" y="1" relative="1" as="geometry">
            <mxPoint x="-10" y="-31" as="offset" />
          </mxGeometry>
        </mxCell>
        <mxCell id="CvdY9FGDeXSNJmlMAJMc-58" style="edgeStyle=orthogonalEdgeStyle;rounded=0;orthogonalLoop=1;jettySize=auto;html=1;exitX=0;exitY=0.5;exitDx=0;exitDy=0;" edge="1" parent="1" source="CvdY9FGDeXSNJmlMAJMc-34" target="CvdY9FGDeXSNJmlMAJMc-41">
          <mxGeometry relative="1" as="geometry">
            <Array as="points">
              <mxPoint x="590" y="415" />
              <mxPoint x="590" y="445" />
            </Array>
          </mxGeometry>
        </mxCell>
        <mxCell id="CvdY9FGDeXSNJmlMAJMc-59" value="&lt;font style=&quot;font-size: 25px;&quot;&gt;1/N&lt;/font&gt;" style="edgeLabel;html=1;align=center;verticalAlign=middle;resizable=0;points=[];" vertex="1" connectable="0" parent="CvdY9FGDeXSNJmlMAJMc-58">
          <mxGeometry x="-0.6283" relative="1" as="geometry">
            <mxPoint x="-110" y="3" as="offset" />
          </mxGeometry>
        </mxCell>
        <mxCell id="CvdY9FGDeXSNJmlMAJMc-60" style="edgeStyle=orthogonalEdgeStyle;rounded=0;orthogonalLoop=1;jettySize=auto;html=1;entryX=1;entryY=0.5;entryDx=0;entryDy=0;" edge="1" parent="1" source="CvdY9FGDeXSNJmlMAJMc-2" target="CvdY9FGDeXSNJmlMAJMc-39">
          <mxGeometry relative="1" as="geometry" />
        </mxCell>
        <mxCell id="CvdY9FGDeXSNJmlMAJMc-61" value="&lt;font style=&quot;font-size: 25px;&quot;&gt;1/N&lt;/font&gt;" style="edgeLabel;html=1;align=center;verticalAlign=middle;resizable=0;points=[];" vertex="1" connectable="0" parent="CvdY9FGDeXSNJmlMAJMc-60">
          <mxGeometry x="0.0084" y="-1" relative="1" as="geometry">
            <mxPoint as="offset" />
          </mxGeometry>
        </mxCell>
      </root>
    </mxGraphModel>
  </diagram>
</mxfile>
